<svg xmlns="http://www.w3.org/2000/svg" viewBox="0 0 40 45"><defs><style>.cls-1{fill:#fff;}</style></defs><g id="Calque_2" data-name="Calque 2"><g id="Calque_1-2" data-name="Calque 1"><path d="M36.77,8.86c-.12.17-.2.41-.37.5-3.17,1.81-3.73,4.64-3.48,8.08.27,3.61,0,7.25.12,10.87.05,1.26.37,2.93,1.2,3.66,1.67,1.46,1.55,3.15,1.51,5,0,.43,0,.85.06,1.28a2.48,2.48,0,0,0,.58.3c1.12.22,3,.12,3.21.67a9.08,9.08,0,0,1,.21,4.58c-.09.52-1.45,1.15-2.23,1.16-7.9.08-15.8,0-23.69,0C10,45,6.2,44.91,2.35,45,.66,45-.18,44.5,0,42.69c0-.21,0-.42,0-.64,0-2.91-.64-3.7,3.2-3.51a3.74,3.74,0,0,0,.89-.15,13.25,13.25,0,0,0,.11-1.49c-.08-1.84-.11-3.49,1.54-4.94.83-.73,1.15-2.4,1.19-3.66.14-4.33,0-8.68.1-13,.07-2.11-.38-3.7-2.22-4.83A9.91,9.91,0,0,1,3.22,8.86l-.06,0H36.83ZM34,33.13c-2.1-1.09-26.71-.9-27.85.13C7.62,34.24,32.39,34.24,34,33.13ZM7.35,11.87c1.9,1.09,23.85,1,25.11,0C31.14,10.83,9.12,10.76,7.35,11.87ZM35.56,38.5H4.49C5.88,40,34,40,35.56,38.5ZM32.88,30H7.16C8.8,31.41,31.13,31.43,32.88,30Z"/><path d="M3.22,8.86C3.1,6.28,3,3.69,2.89,1.11c0-.19.15-.55.25-.56A46.9,46.9,0,0,1,9.51.27c.54,0,1,1.41,1.71,2.49h4.13c-.3-2.45,1-2.91,3-2.72a25,25,0,0,0,3.35,0c1.83-.08,3.35.17,2.82,2.73h4.7C29.07.26,30.53,0,32.56,0c5.26.13,4.59-.43,4.58,4.7,0,1.38-.24,2.76-.37,4.13l.06,0c-.56-.44-1.12-1.25-1.68-1.25Q20,7.52,4.84,7.63c-.57,0-1.12.82-1.68,1.26Z"/><path class="cls-1" d="M34,33.13c-1.62,1.11-26.39,1.11-27.85.13C7.3,32.23,31.91,32,34,33.13Z"/><path class="cls-1" d="M3.16,8.89c.56-.44,1.11-1.25,1.68-1.26q15.15-.11,30.31,0c.56,0,1.12.81,1.68,1.25Z"/><path class="cls-1" d="M7.35,11.87c1.77-1.11,23.79-1,25.11,0C31.2,12.83,9.25,13,7.35,11.87Z"/><path class="cls-1" d="M35.56,38.5C34,40,5.88,40,4.49,38.5Z"/><path class="cls-1" d="M32.88,30C31.13,31.43,8.8,31.41,7.16,30Z"/></g></g></svg>