<svg xmlns="http://www.w3.org/2000/svg" viewBox="0 0 45 45"><defs><style>.cls-1{fill:#fff;}</style></defs><g id="Calque_2" data-name="Calque 2"><g id="Calque_1-2" data-name="Calque 1"><path class="cls-1" d="M13.39,34.61q9.06.33,18.13.18c2.52,0,2.52-3.95,0-3.91q-9.06.15-18.13-.18c-2.52-.08-2.52,3.82,0,3.91Z"/><path d="M33.18,31.73H11.56l2.11-4c-3.71-2.9-4.6-6.8-3-11.26,1.55-4.2,4.87-6.79,8.67-8.85C17.89,4,18.06,2.18,20,.8A4.4,4.4,0,0,1,25.27,1c1.82,1.53,1.9,3.49.27,6.45,10.67,8,12.34,14,5.72,20.36.53.89,1.07,1.76,1.56,2.66A6.59,6.59,0,0,1,33.18,31.73ZM22.49,28.45c2,0,3.92.07,5.87-.05.54,0,1.05-.62,1.58-.95-.49-.31-1-.89-1.47-.9q-6-.11-11.94,0c-.5,0-1,.57-1.48.88.52.34,1,.94,1.57,1C18.57,28.52,20.53,28.45,22.49,28.45Zm1.42-10,2.77-1.26-2.87-1.55L22.59,13l-1.54,2.72-2.74,1.47,2.76,1.27,1.41,2.82C23,20.35,23.43,19.41,23.91,18.47Z"/><path d="M33.45,33.46c.08,2.8-.61,3.39-5.72,5.1,1,.1,2,.26,3.05.3a64.84,64.84,0,0,1,8,.42A15,15,0,0,1,44,41.7c1.5,1,1.21,2.34-.51,3a5.47,5.47,0,0,1-2.29.25c-3.12-.2-6.23-.48-9.34-.71-2.93-.22-5.86-.42-8.79-.63a11.42,11.42,0,0,0-1.17,0c-3.32.2-6.64.38-10,.62-2.66.19-5.32.46-8,.66a6.26,6.26,0,0,1-2.12,0c-2-.56-2.52-2.1-.89-3.36a10.63,10.63,0,0,1,4.66-2.15c3-.44,6-.35,9-.5.84,0,1.67-.18,2.9-.31-2.65-1.35-6.29-1.06-6.1-5.08Z"/><path class="cls-1" d="M22.49,28.45c-2,0-3.92.07-5.87-.05-.54,0-1.05-.63-1.57-1,.49-.31,1-.87,1.48-.88q6-.11,11.94,0c.49,0,1,.59,1.47.9-.53.33-1,.92-1.58.95C26.41,28.52,24.44,28.45,22.49,28.45Z"/><path class="cls-1" d="M23.91,18.47c-.48.94-.95,1.88-1.43,2.81l-1.41-2.82-2.76-1.27,2.74-1.47L22.59,13l1.22,2.66,2.87,1.55Z"/></g></g></svg>