<svg xmlns="http://www.w3.org/2000/svg" viewBox="0 0 45 45.35"><defs><style>.cls-1{fill:#fff;}</style></defs><g id="Calque_2" data-name="Calque 2"><g id="Calque_1-2" data-name="Calque 1"><path class="cls-1" d="M25.62,9.2c15,3.29,14.1,22.05,14.15,34.2,0,2.59,4,2.6,4,0-.06-14.13.09-34.31-17.11-38.09-2.53-.56-3.61,3.33-1.07,3.89Z"/><path d="M43.24,44.8c.33-7.57.28-15-1.56-22.23a28.64,28.64,0,0,0-5-10.92,16.21,16.21,0,0,0-9.06-6c-1.35-.33-2.1-.1-2,1.44.09.12.15.28.25.31,9.29,2.94,12.52,10.48,13.74,19.12.84,6,.78,12.05,1.12,18.18-.89.1-1.34.2-1.78.2-8.17,0-16.33,0-24.5.06-2,0-2.4-.76-2.22-2.55a12.44,12.44,0,0,1,3.4-7.38c1.27-1.38,2.65-2.66,3.92-4.05a13.55,13.55,0,0,0,3.53-9.1c-4.17,3.77-8,7.14-11.75,10.68-1.76,1.68-2.61,2-4.72.59a2.12,2.12,0,0,0-.93-.26C1.06,32.45-1,29.24.49,24.75A32.86,32.86,0,0,1,3,19.24C5.12,15.45,7.38,11.72,9.66,8a4,4,0,0,0,.66-3.54c-.39-1.33-.92-3.18.75-4s2.68.71,3.6,1.85c1.73,2.12,1.85,2.14,3.43,0a3.66,3.66,0,0,1,.77-.92c.86-.56,2-1.63,2.61-1.4.81.29,1.21,1.68,1.85,2.54.42.56.91,1.38,1.47,1.47,10.71,1.81,16,8.91,18.44,18.88A79.77,79.77,0,0,1,45,43.2C45,44.27,44.75,45.1,43.24,44.8ZM10.32,13.71c.23.25.62,1,1.19,1.21,1.13.35,3.08-1.93,3-3.66a2.15,2.15,0,0,0-1.2-1.65C12.29,9.3,10.56,11.51,10.32,13.71Zm-2.8,12c-1.19-.77-1.9-1.59-2.46-1.49A2.36,2.36,0,0,0,3.6,25.89c-.06.4,1,1.37,1.49,1.38S6.36,26.51,7.52,25.71Z"/><path class="cls-1" d="M10.32,13.71c.24-2.2,2-4.41,3-4.1a2.15,2.15,0,0,1,1.2,1.65c0,1.73-1.91,4-3,3.66C10.94,14.74,10.55,14,10.32,13.71Z"/><path class="cls-1" d="M7.52,25.71c-1.16.8-1.8,1.57-2.43,1.56s-1.55-1-1.49-1.38a2.36,2.36,0,0,1,1.46-1.67C5.62,24.12,6.33,24.94,7.52,25.71Z"/></g></g></svg>