<svg xmlns="http://www.w3.org/2000/svg" viewBox="0 0 45 40"><defs><style>.cls-1{fill:#fff;}</style></defs><g id="Calque_2" data-name="Calque 2"><g id="Calque_1-2" data-name="Calque 1"><path class="cls-1" d="M35.82,37.47a1.71,1.71,0,0,0,0-3.42,1.71,1.71,0,0,0,0,3.42Z"/><path class="cls-1" d="M9.67,27.57c8.6-1.39,16.67-1.92,25.2.27,2.14.55,3.05-2.75.91-3.3-9.09-2.33-17.85-1.75-27-.27-2.17.35-1.25,3.65.91,3.3Z"/><path class="cls-1" d="M33.63,27.54a102.61,102.61,0,0,0-11.89.37,53.74,53.74,0,0,1-5.53.14A26.16,26.16,0,0,1,12,27.62c.88,1,1.18,1.22.92.59-.71-2.08-4-1.19-3.3.91.89,2.65,4.18,2.27,6.62,2.36,5.82.21,11.59-.84,17.42-.51,2.2.12,2.2-3.3,0-3.43Z"/><path class="cls-1" d="M9.2,37.6c4.11.18,8.17,1.51,12.31,1.84,4.7.38,9.22-.56,13.77-1.64,2.14-.5,1.24-3.81-.91-3.3a41.89,41.89,0,0,1-14.52,1.34c-3.59-.39-7-1.51-10.65-1.66C7,34.09,7,37.51,9.2,37.6Z"/><path d="M7.54,26.86A22,22,0,0,1,5.8,23c-.87-3.68-1.51-7.42-2.35-11.12a2.54,2.54,0,0,0-1.28-1.46C.31,9.57-.51,7.84.32,6.19A3.26,3.26,0,0,1,4.63,4.76c1.73.82,2.22,2.57,1.31,4.43a1.71,1.71,0,0,0,0,1.43,90.81,90.81,0,0,0,5.77,8c0-.61.08-1.22.1-1.83.07-2.79.19-5.57.17-8.35a2.18,2.18,0,0,0-.89-1.52c-1.67-1.18-2.2-3-1.12-4.49a3.3,3.3,0,0,1,4.5-.71,3,3,0,0,1,.49,4.56c-.27.35-.63.91-.51,1.22a93,93,0,0,0,4.43,10.25c.26-1.1.53-2.19.78-3.28.47-2.13.91-4.26,1.39-6.38.26-1.14.52-2.08-.83-3s-1.15-3,0-4.18a3.35,3.35,0,0,1,4.57,0,2.76,2.76,0,0,1,0,4.18C23.59,6,23.7,6.83,24,7.94c.75,3.25,1.46,6.51,2.26,10.09a14.7,14.7,0,0,0,.73-1.33c1-2.39,1.92-4.78,2.89-7.17.55-1.36,1.32-2.55-.19-4-1.09-1.06-.32-3.07,1.06-3.91a3.36,3.36,0,0,1,4.37.82,2.8,2.8,0,0,1-.74,4.13C33,7.24,33,8.13,33,9.27c0,3.08,0,6.16,0,9.24l.61.09c1.88-2.73,3.78-5.44,5.6-8.2.18-.28,0-.9-.22-1.29a3,3,0,0,1,1.44-4.38,3.23,3.23,0,0,1,4.25,1.55c.74,1.62-.09,3.3-1.83,4.15A2.75,2.75,0,0,0,41.55,12c-.88,3.81-1.55,7.65-2.45,11.45a17,17,0,0,1-1.62,3.3C32.83,22.54,11.83,22.56,7.54,26.86Z"/><path d="M36.18,31.86c.45,1.1.89,2.21,1.28,3.18-.9.18-1.75.28-2.56.52a42,42,0,0,1-25-.07,2.36,2.36,0,0,0-.82-.23,8.2,8.2,0,0,0-1.35.37c.29.4.51,1.08.88,1.17A92.05,92.05,0,0,0,18.7,38.87,40.26,40.26,0,0,0,36,37c.36-.12.74-.2,1.11-.3l.2.4a11.44,11.44,0,0,1-2,1,44.5,44.5,0,0,1-24.33.38c-5.18-1.32-4.39-3.27-2.29-6.77.37-.61.79-1.19,1.21-1.83H35.23l1,2a9.87,9.87,0,0,0-2.05.13,42.65,42.65,0,0,1-23.47,0,4.87,4.87,0,0,0-1.83.28c.42.42.77,1.08,1.28,1.23a43.41,43.41,0,0,0,24.64.06C35.82,33.33,36.31,32.86,36.18,31.86Z"/><path d="M9.47,28.8l-.88-1.34C19,24.37,24.14,24.35,36.43,27.4l-.91,1.43A15.38,15.38,0,0,0,33,28.39q-10.41,0-20.83,0A17.21,17.21,0,0,0,9.47,28.8Z"/><path class="cls-1" d="M36.18,31.86c.13,1-.36,1.47-1.37,1.75a43.41,43.41,0,0,1-24.64-.06c-.51-.15-.86-.81-1.28-1.23A4.87,4.87,0,0,1,10.72,32a42.65,42.65,0,0,0,23.47,0,9.87,9.87,0,0,1,2.05-.13Z"/></g></g></svg>