<svg xmlns="http://www.w3.org/2000/svg" viewBox="0 0 95.22 105.35"><defs><style>.cls-1{fill:#fff;}</style></defs><g id="Calque_2" data-name="Calque 2"><g id="Calque_1-2" data-name="Calque 1"><path d="M87.53,20.75c-.29.4-.49.95-.87,1.17-7.57,4.23-8.89,10.86-8.28,18.92.63,8.44-.1,17,.27,25.44.13,3,.88,6.85,2.86,8.56,4,3.42,3.68,7.37,3.59,11.63,0,1,.1,2,.15,3a6.23,6.23,0,0,0,1.36.69c2.67.51,7.17.27,7.67,1.57,1.22,3.22,1.1,7.22.49,10.72-.21,1.22-3.45,2.69-5.31,2.71-18.8.2-37.6.11-56.41.11-9.15,0-18.3-.13-27.45.08-4,.09-6-1.17-5.52-5.4a15,15,0,0,0,0-1.5c.13-6.81-1.51-8.66,7.62-8.21a10.94,10.94,0,0,0,2.11-.36,29.34,29.34,0,0,0,.26-3.5c-.17-4.29-.24-8.17,3.68-11.57,2-1.71,2.73-5.61,2.83-8.56.33-10.14-.12-20.3.23-30.44.17-4.93-.9-8.65-5.27-11.29-1.5-.92-2.61-2.49-3.89-3.77l-.15.06H87.67ZM81,77.56c-5-2.55-63.58-2.1-66.29.3C18.15,80.17,77.11,80.15,81,77.56ZM17.5,27.78c4.53,2.55,56.77,2.27,59.77-.09C74.12,25.35,21.7,25.2,17.5,27.78ZM84.66,90.14h-74C14,93.6,80.92,93.68,84.66,90.14Zm-6.4-20H17.05C21,73.54,74.1,73.59,78.26,70.19Z"/><path d="M7.66,20.75C7.39,14.7,7.11,8.64,6.89,2.59c0-.44.35-1.28.58-1.29C12.53.94,17.62.3,22.64.64,23.93.72,25,3.92,26.7,6.46h9.85C35.82.72,39.05-.36,43.78.09a59,59,0,0,0,8,.05c4.35-.18,8,.39,6.69,6.4h11.2c-.46-5.93,3-6.6,7.86-6.48,12.52.31,10.91-1,10.91,11,0,3.23-.58,6.45-.89,9.68l.14.06c-1.33-1-2.66-2.92-4-2.93q-36.08-.27-72.16,0c-1.34,0-2.66,1.92-4,2.94Z"/><path class="cls-1" d="M81,77.56c-3.84,2.59-62.8,2.61-66.29.3C17.37,75.46,76,75,81,77.56Z"/><path class="cls-1" d="M7.51,20.81c1.34-1,2.66-2.93,4-2.94q36.08-.27,72.16,0c1.34,0,2.67,1.91,4,2.93Z"/><path class="cls-1" d="M17.5,27.78c4.2-2.58,56.62-2.43,59.77-.09C74.27,30.05,22,30.33,17.5,27.78Z"/><path class="cls-1" d="M84.66,90.14c-3.74,3.54-70.65,3.46-74,0Z"/><path class="cls-1" d="M78.26,70.19c-4.16,3.4-57.31,3.35-61.21,0Z"/></g></g></svg>