<svg xmlns="http://www.w3.org/2000/svg" viewBox="0 0 45 45"><defs><style>.cls-1{fill:#fff;}</style></defs><g id="Calque_2" data-name="Calque 2"><g id="Calque_1-2" data-name="Calque 1"><path class="cls-1" d="M10.74,29.81c-1.08-1.47-2.31-2.74-3.52-4.1a15,15,0,0,1-1.85-2.28L9.05,17.6c1.38-.5,4.95,1.33,6,1.89,2,1.1,6.49,4.68,4.17,7.17-1.36,1.46-6.74,1.91-8.7,2.47A1.94,1.94,0,0,0,11,32.92c4.75,0,10.66-2.59,13.43-6.64,2.05-3,2.5-5.88,6.1-7.69,5.2-2.61,14.58.66,7,7.72-5.61,5.23-13.17-2.87-18.77,1.74-1.34,1.1-1.26,2.2-1.88,3.66.77,1.26.33,1.69-1.3,1.3l-1.88.25a43.78,43.78,0,0,0-5.05,1.12l1,3.72a32.62,32.62,0,0,1,17.39-2.46c1.06.15,2.81.86,3.87.79,2.07-.12,1.26-1.16,1.23.47,0,1.45-.4,2.39.07,3.91l2.84-2.18a31.1,31.1,0,0,0-26.62,0c-2.25,1-.29,4.37,1.95,3.33a26.87,26.87,0,0,1,22.72,0c1.43.65,3.37-.44,2.83-2.18-.6-2,1.42-3.26.17-5.11s-4.76-2.2-6.62-2.56A35.86,35.86,0,0,0,8.66,34.38c-2.21.93-1.45,4.41,1,3.72s5.28-.89,7.92-1.42a4.26,4.26,0,0,0,2.22-.81c.88-.78.5-1.94,1.09-2.74,1.29-1.78,4-2.16,5.9-2,1.16.13,2.34.64,3.52.81,6.31.94,14.81-4.06,14.27-11.34-.47-6.23-8-7.88-13-6.55a14.58,14.58,0,0,0-7.87,5.3c-1.17,1.6-1.66,3.77-2.91,5.27A14.33,14.33,0,0,1,11,29.06l.51,3.79c3.28-.93,8-1.35,10.9-3.16,1.41-.87,1.7-1.68,1.65-3.33C23.92,20.8,19.34,17,14.61,15.1S3.9,12.88,1.5,18.25C-1.08,24,4.43,27.73,7.41,31.76c1.46,2,4.82,0,3.33-2Z"/><path d="M36.35,31.85c.48-.48.94-1,1.44-1.44,1.62-1.54,3.55-2.86,4.82-4.65,3.33-4.68,1.08-10.22-4.58-11.42-5.28-1.12-9.42,1.21-13,4.75a28.06,28.06,0,0,0-2.17,2.59c-2.5-2-4.8-4.12-7.4-5.8a11.24,11.24,0,0,0-8.16-1.7C1.91,15.11-.85,20.66,2,25.32,3,27.07,4.82,28.38,6.31,29.85a16.58,16.58,0,0,0,1.78,1.31C5.34,31,1.58,27.43.54,24.44A8.38,8.38,0,0,1,3.06,15c4.65-4.14,9.46-2.19,14.28.43A7.49,7.49,0,0,1,21,7.77c.63-.4.5-2,.61-2.57l-3.2-1.89L21.19,2l1.3-2,1.43,2,2.75,1.41L23.6,5a2.89,2.89,0,0,0,1.48,3.59c2.12,1.26,2.83,3.55,2.71,6.12,1.57-.6,2.95-1.25,4.41-1.65,5.55-1.52,11.29,1.58,12.56,6.68a7.19,7.19,0,0,1-1.58,6.67,57.38,57.38,0,0,1-5.82,5.28c-.22.19-.68.1-1,.14Z"/><path d="M23.59,27.42c-.38-6.36,7.77-12.9,14.2-11.17,4.22,1.13,5.84,5,3.15,8.47-1.53,2-3.78,3.39-5.77,5a1.94,1.94,0,0,1-1.42.11C30.43,29.05,27.13,28.25,23.59,27.42Z"/><path d="M21.6,27.32c-3.93.82-7.51,1.58-11.09,2.31-.29.06-.72.13-.9,0-2-1.72-4.49-3.17-5.94-5.3-2.32-3.37,0-7.59,4-8.26,4.83-.8,12.4,3.84,13.73,8.5A12.5,12.5,0,0,1,21.6,27.32Z"/><path d="M35.37,42C26.25,46,17.47,46,8.52,42,13.6,37.75,29.4,37.69,35.37,42Z"/><path d="M36.33,31.81l.16,3.57a35.88,35.88,0,0,0-29-.07V32.47c3.28-.8,6.64-1.89,10.08-2.4a30.47,30.47,0,0,1,16.85,2.1c.5.22,1.27-.18,1.92-.31Z"/><path d="M7.44,40v-2.6a35.55,35.55,0,0,1,14.41-3.15,33.89,33.89,0,0,1,14.52,3.23V40a31.18,31.18,0,0,0-14.49-3.15A30.9,30.9,0,0,0,7.44,40Z"/></g></g></svg>