<svg xmlns="http://www.w3.org/2000/svg" viewBox="0 0 45 40"><defs><style>.cls-1{fill:#fff;}</style></defs><g id="Calque_2" data-name="Calque 2"><g id="Calque_1-2" data-name="Calque 1"><path d="M11.66,19.34c0-3.83,0-7.65,0-11.47,0-.37-.53-.78-.9-1.08a3.08,3.08,0,0,1-.61-4.52A3.22,3.22,0,0,1,14.77,2a3.09,3.09,0,0,1,0,4.57c-.35.38-.74,1.09-.6,1.47,1.35,3.55,2.82,7.07,4.39,11a11.84,11.84,0,0,0,.48-1.34c.71-3.38,1.38-6.78,2.14-10.15a1.61,1.61,0,0,0-.69-2A2.89,2.89,0,0,1,20.18,1a3.25,3.25,0,0,1,4.67,0,3.12,3.12,0,0,1-.34,4.56A2,2,0,0,0,23.78,7c.73,3.9,1.56,7.77,2.43,12A7.28,7.28,0,0,0,27,17.88C28.19,15,29.39,12,30.66,9.07a1.48,1.48,0,0,0-.4-2,2.91,2.91,0,0,1,0-4.52,3.26,3.26,0,0,1,4.55.21,3.13,3.13,0,0,1-.54,4.66c-.39.33-.89.83-.9,1.27a82,82,0,0,0,.36,10.67c.8-1.19,1.6-2.37,2.38-3.57.66-1,1.3-2,2-3,.78-1.17,1.58-2.15.67-3.79-.78-1.4.5-3.24,2.13-3.71a3.23,3.23,0,0,1,3.95,2A2.89,2.89,0,0,1,42.91,11c-1.52.32-1.71,1.15-1.89,2.34-.56,3.64-1.1,7.29-1.88,10.89a10.44,10.44,0,0,1-1.9,3.31c-.91,1.33-2.47,2.4-1.67,4.33.53,1.28,1.15,2.54,1.69,3.82.81,1.91,0,3.25-2.08,3.5a104.71,104.71,0,0,1-25.33,0c-2.59-.32-3.43-1.78-2.34-4a27.62,27.62,0,0,0,1.64-2.94,6.3,6.3,0,0,0,.06-2.67,1.9,1.9,0,0,0-.74-1.13C6,26.54,5.7,23.76,5.28,21s-.93-5.48-1.38-8.22c-.13-.82-.27-1.38-1.37-1.59a3,3,0,0,1-2.33-4A3.24,3.24,0,0,1,4.35,5.3,3.11,3.11,0,0,1,6.06,9.66,3.4,3.4,0,0,0,5.83,11c0,.24.28.48.44.72l5,7.67ZM35.92,37.28c-.33-.77-.79-1.34-.75-1.88.13-1.75-.92-2.18-2.36-2.21C26.87,33.08,20.93,33,15,32.93a22.46,22.46,0,0,0-3.82.43c-1,.17-2.6,2.18-2.25,3.22.18.54,1.39,1,2.18,1.08a108.42,108.42,0,0,0,22.71,0C34.47,37.63,35.12,37.44,35.92,37.28ZM37.16,25c-4.6-1.82-26.88-1.81-29.5.45,1.21.71,2.32,1.91,3.44,1.93,7.1.11,14.21-.27,21.3,0A4.94,4.94,0,0,0,37.16,25Zm-3.5,4.09a115.66,115.66,0,0,0-22.33.05l.2,2h22ZM25,21.87l-2.29-11h-.44c-.75,3.65-1.5,7.29-2.27,11.05Zm-11.48.42,4.38-.24L13.83,12l-.3.13Zm18-9.83-.35-.09-4,9.65,4.38.19ZM11.24,22.52,6.44,15.2l-.32.17,1.34,7.69Zm22.57-.07,3.76.53c.45-2.63.88-5.13,1.31-7.62l-.35-.11C37,17.56,35.51,19.87,33.81,22.45Zm.7-17.66c-1-.65-1.6-1.28-2.14-1.26S31,4.39,31.1,4.72a2,2,0,0,0,1.32,1.37C32.89,6.16,33.5,5.46,34.51,4.79Zm9.38,3.33c-1.07-.61-1.66-1.23-2.2-1.19s-1.3.9-1.22,1.24a2,2,0,0,0,1.35,1.32C42.31,9.55,42.89,8.83,43.89,8.12Zm-19.29-5c-1-.69-1.56-1.34-2.1-1.34S21.13,2.63,21.18,3a2,2,0,0,0,1.26,1.41C22.92,4.47,23.55,3.8,24.6,3.16ZM3.21,10.26c.68-1,1.35-1.55,1.33-2.08s-.86-1.3-1.21-1.25A2,2,0,0,0,1.9,8.18C1.82,8.65,2.53,9.25,3.21,10.26Zm9.34-4c.7-1,1.44-1.58,1.36-2a2.1,2.1,0,0,0-1.44-1.28c-.32-.07-1.19.78-1.21,1.25S11.89,5.26,12.55,6.25Z"/><path class="cls-1" d="M35.92,37.28c-.8.16-1.45.35-2.11.42a108.42,108.42,0,0,1-22.71,0c-.79-.09-2-.54-2.18-1.08-.35-1,1.23-3,2.25-3.22A22.46,22.46,0,0,1,15,32.93c5.94,0,11.88.15,17.82.26,1.44,0,2.49.46,2.36,2.21C35.13,35.94,35.59,36.51,35.92,37.28Z"/><path class="cls-1" d="M37.16,25a4.94,4.94,0,0,1-4.76,2.4c-7.09-.29-14.2.09-21.3,0-1.12,0-2.23-1.22-3.44-1.93C10.28,23.23,32.56,23.22,37.16,25Z"/><path class="cls-1" d="M33.66,29.13l-.17,2.06h-22l-.2-2A115.66,115.66,0,0,1,33.66,29.13Z"/><path class="cls-1" d="M25,21.87H20c.77-3.76,1.52-7.4,2.27-11h.44Z"/><path class="cls-1" d="M13.53,22.29V12.1l.3-.13,4.08,10.08Z"/><path class="cls-1" d="M31.51,12.46v9.75L27.13,22l4-9.65Z"/><path class="cls-1" d="M11.24,22.52l-3.78.54L6.12,15.37l.32-.17Z"/><path class="cls-1" d="M33.81,22.45c1.7-2.58,3.21-4.89,4.72-7.2l.35.11c-.43,2.49-.86,5-1.31,7.62Z"/><path class="cls-1" d="M34.51,4.79c-1,.67-1.62,1.37-2.09,1.3A2,2,0,0,1,31.1,4.72c-.07-.33.8-1.17,1.27-1.19S33.48,4.14,34.51,4.79Z"/><path class="cls-1" d="M43.89,8.12c-1,.71-1.58,1.43-2.07,1.37a2,2,0,0,1-1.35-1.32c-.08-.34.75-1.21,1.22-1.24S42.82,7.51,43.89,8.12Z"/><path class="cls-1" d="M24.6,3.16c-1.05.64-1.68,1.31-2.16,1.22A2,2,0,0,1,21.18,3c-.05-.34.85-1.15,1.32-1.15S23.59,2.47,24.6,3.16Z"/><path class="cls-1" d="M3.21,10.26c-.68-1-1.39-1.61-1.31-2.08A2,2,0,0,1,3.33,6.93c.35,0,1.2.79,1.21,1.25S3.89,9.26,3.21,10.26Z"/><path class="cls-1" d="M12.55,6.25c-.66-1-1.32-1.55-1.29-2.06s.89-1.32,1.21-1.25a2.1,2.1,0,0,1,1.44,1.28C14,4.67,13.25,5.27,12.55,6.25Z"/></g></g></svg>