<svg xmlns="http://www.w3.org/2000/svg" viewBox="0 0 40 45"><defs><style>.cls-1{fill:#fff;}</style></defs><g id="Calque_2" data-name="Calque 2"><g id="Calque_1-2" data-name="Calque 1"><path d="M11,2.79h4.25C14.92.19,16.45-.13,18.46,0a18.06,18.06,0,0,0,3.37,0c1.9-.18,3.08.33,2.75,2.69h4.74C29,.24,30.44,0,32.42,0,38,.13,37-.35,37.27,4.78c.17,2.82-.45,5-2.73,6.64A4,4,0,0,0,33,15.12c.1,4.42,0,8.84.11,13.25,0,1.21.31,2.85,1.1,3.49,1.91,1.54,1.56,3.46,1.62,5.39,0,.35.1.69.16,1.11.45.06.85.16,1.26.18,2.79.12,2.79.12,2.8,2.88C40,45,40,45,36.38,45c-11.25,0-22.5,0-33.75,0-.88,0-2.47-.43-2.5-.79A11.89,11.89,0,0,1,.45,39c.22-.59,2.26-.5,3.58-.74,0-.63.1-1.25.1-1.88,0-1.55,0-2.92,1.36-4.19a5.9,5.9,0,0,0,1.37-3.83c.15-4.48.14-9,0-13.47a4.62,4.62,0,0,0-1.35-3.26c-4-2.75-2.6-6.79-2.7-10.47a1.34,1.34,0,0,1,.9-1,30.27,30.27,0,0,1,5.87,0C10.1.33,10.45,1.77,11,2.79Zm19.75,9.92H9.19V29.15H30.75ZM8.33,2.35H5V7H35V2.31H31.63c.35,2.75-1.27,2.92-3.24,2.75a15.17,15.17,0,0,0-3.16,0c-2,.23-3.16-.34-2.85-2.68H17.47c.4,2.45-.89,2.82-2.72,2.68a19.35,19.35,0,0,0-3.57,0C9.23,5.26,8,4.8,8.33,2.35ZM33.54,35H9.07c-3.12,0-3.16.06-2.56,3.37h27ZM2.13,42.54c.21.13.26.2.32.2,11.39,0,22.78.08,34.17,0,.49,0,1-.89,1.46-1.36l-.42-.55H2.05Zm29.69-9.76c-.46-1.82-1.26-2.51-3-2.48-6,.11-11.95.1-17.93,0-1.8,0-2.44.79-2.66,2.47Zm1.39-22.66-.34-.65H6.93l-.24.68c1.06.43,2.11,1.23,3.18,1.25q10.1.16,20.21,0C31.13,11.37,32.17,10.56,33.21,10.12Z"/><path class="cls-1" d="M30.75,12.71V29.15H9.19V12.71Z"/><path class="cls-1" d="M8.33,2.35C8,4.8,9.23,5.26,11.18,5.06a19.35,19.35,0,0,1,3.57,0c1.83.14,3.12-.23,2.72-2.68h4.91c-.31,2.34.87,2.91,2.85,2.68a15.17,15.17,0,0,1,3.16,0c2,.17,3.59,0,3.24-2.75H35V7H5V2.35Z"/><path class="cls-1" d="M33.54,35v3.37h-27C5.91,35.07,6,35,9.07,35H33.54Z"/><path class="cls-1" d="M2.13,42.54l-.08-1.68H37.66l.42.55c-.49.47-1,1.36-1.46,1.36-11.39,0-22.78,0-34.17,0C2.39,42.74,2.34,42.67,2.13,42.54Z"/><path class="cls-1" d="M31.82,32.78H8.22c.22-1.68.86-2.5,2.66-2.47,6,.09,12,.1,17.93,0C30.56,30.27,31.36,31,31.82,32.78Z"/><path class="cls-1" d="M33.21,10.12c-1,.44-2.08,1.25-3.13,1.27q-10.11.18-20.21,0c-1.07,0-2.12-.82-3.18-1.25l.24-.68H32.87Z"/></g></g></svg>