<svg xmlns="http://www.w3.org/2000/svg" viewBox="0 0 45 45"><defs><style>.cls-1{fill:#fff;}</style></defs><g id="Calque_2" data-name="Calque 2"><g id="Calque_1-2" data-name="Calque 1"><path d="M22.67,22.23c-3.83,3.51-7.72,7-11.48,10.54-1.65,1.56-2.6,1.78-4.61.45a2.41,2.41,0,0,0-.93-.29c-4.75-.6-6.76-4-5-8.59a28.27,28.27,0,0,1,1.92-4.23C4.87,16,7.27,12,9.69,8a4.08,4.08,0,0,0,.63-3.57c-.4-1.34-1-3.17.73-4s2.67.75,3.6,1.87c1.76,2.14,1.86,2.16,3.57-.1a3,3,0,0,1,.65-.76c.93-.55,2-1.5,2.84-1.39.63.08,1,1.62,1.63,2.46.41.58.88,1.43,1.43,1.52,10.72,1.79,16.07,8.89,18.46,18.88A79.75,79.75,0,0,1,45,43.2c0,1.33-.59,1.77-1.83,1.77Q28.58,45,14,45c-1.38,0-1.91-.55-1.83-2a12,12,0,0,1,3.31-7.84c1.38-1.47,2.82-2.88,4.17-4.38A11.3,11.3,0,0,0,22.67,22.23ZM8.74,31.63c3.91-3.31,7.85-6.6,11.72-10A17.35,17.35,0,0,0,23,18.79a10.15,10.15,0,0,0,1.14-2.34c.28-.74,0-2.08,1.35-1.61.41.15.63,1.47.55,2.22-.18,1.92-.68,3.8-.88,5.72a16.81,16.81,0,0,1-4.83,10.41c-1.28,1.29-2.6,2.54-3.77,3.93a7.6,7.6,0,0,0-2.13,5.7H42.92c0-2,0-3.87,0-5.74-.2-6.44-.86-12.8-3.28-18.84C37.07,11.84,32.55,7.7,25.75,6.32c-2.3-.47-5.15-.18-4.43-4-2.2.56-1.86,3.49-4.44,3.65s-3.09-1.89-4.81-3.07c1.51,2.78.08,4.75-1.2,6.93-2.89,4.91-5.64,9.93-8.2,15a6.72,6.72,0,0,0-.08,4.28c.19.75,1.41,1.45,2.31,1.74,1.18.37,1.16-.74,1.48-1.57a2.08,2.08,0,0,1,1.79-1c.46.08.93,1.07,1.06,1.72S8.91,31.12,8.74,31.63Z"/><path class="cls-1" d="M8.74,31.63c.17-.51.59-1.12.49-1.63s-.6-1.64-1.06-1.72a2.08,2.08,0,0,0-1.79,1c-.32.83-.3,1.94-1.48,1.57-.9-.29-2.12-1-2.31-1.74a6.72,6.72,0,0,1,.08-4.28c2.56-5.1,5.31-10.12,8.2-15,1.28-2.18,2.71-4.15,1.2-6.93,1.72,1.18,2.27,3.23,4.81,3.07s2.24-3.09,4.44-3.65c-.72,3.85,2.13,3.56,4.43,4,6.8,1.38,11.32,5.52,13.88,11.92,2.42,6,3.08,12.4,3.28,18.84.06,1.87,0,3.75,0,5.74H14.41a7.6,7.6,0,0,1,2.13-5.7c1.17-1.39,2.49-2.64,3.77-3.93a16.81,16.81,0,0,0,4.83-10.41c.2-1.92.7-3.8.88-5.72.08-.75-.14-2.07-.55-2.22-1.33-.47-1.07.87-1.35,1.61A10.15,10.15,0,0,1,23,18.79a17.35,17.35,0,0,1-2.52,2.88C16.59,25,12.65,28.32,8.74,31.63Zm1.58-17.88c.25.24.67,1,1.26,1.15,1.11.3,3.05-2.09,3-3.75a2.12,2.12,0,0,0-1.07-1.59C12.37,9.18,10.52,11.44,10.32,13.75ZM5,28.16c.84-1.16,1.62-1.77,1.64-2.4s-.91-1.59-1.32-1.55a2.36,2.36,0,0,0-1.71,1.4C3.5,26.18,4.28,26.92,5,28.16Z"/><path d="M10.32,13.75c.2-2.31,2-4.57,3.17-4.19a2.12,2.12,0,0,1,1.07,1.59c.07,1.66-1.87,4-3,3.75C11,14.75,10.57,14,10.32,13.75Z"/><path d="M5,28.16c-.72-1.24-1.5-2-1.39-2.55a2.36,2.36,0,0,1,1.71-1.4c.41,0,1.33,1,1.32,1.55S5.84,27,5,28.16Z"/></g></g></svg>