<svg xmlns="http://www.w3.org/2000/svg" viewBox="0 0 35 40"><defs><style>.cls-1{fill:#fff;}</style></defs><g id="Calque_2" data-name="Calque 2"><g id="Calque_1-2" data-name="Calque 1"><path d="M25.49,21.92c7.1,5.39,10.05,11,9.43,18.08H0c-.13-7.33,2.37-13.57,9.6-18C7.08,19,6.1,15.7,8.07,12.42c1.51-2.52,3.13-4.67,3-7.84S15.16-.51,18.88.12,25,3.81,24.14,7a2.6,2.6,0,0,0,1,2.92C28.66,13.28,28.76,17.33,25.49,21.92ZM2.41,38.12H32.93c-.8-7-3.42-12.7-11.54-15.58,2.66-1.79,4.47-3.87,4.32-6.87s-2.21-5-5-6.46c1.89-2.88,1.8-4.83-.13-6.33a5.21,5.21,0,0,0-5.94-.14c-2.07,1.43-2.22,3.38-.39,6.57-2.88,1.32-4.74,3.35-5,6.3S11,20.74,13.6,22.55C6.15,25.63,1.72,31.87,2.41,38.12Z"/><path class="cls-1" d="M2.41,38.12C1.72,31.87,6.15,25.63,13.6,22.55c-2.6-1.81-4.53-3.92-4.31-6.94s2.08-5,5-6.3c-1.83-3.19-1.68-5.14.39-6.57a5.21,5.21,0,0,1,5.94.14c1.93,1.5,2,3.45.13,6.33,2.79,1.43,4.84,3.41,5,6.46s-1.66,5.08-4.32,6.87c8.12,2.88,10.74,8.6,11.54,15.58Z"/></g></g></svg>