<svg xmlns="http://www.w3.org/2000/svg" viewBox="0 0 45 45"><defs><style>.cls-1{fill:#fff;}</style></defs><g id="Calque_2" data-name="Calque 2"><g id="Calque_1-2" data-name="Calque 1"><path d="M21.2,2l1.34-2,1.27,2,2.84,1.5L23.56,4.93c-.2,1.22-.45,2.61,1.47,3.62,1.75.92,2.36,2.7,2.87,6A38.51,38.51,0,0,1,32.17,13a10.09,10.09,0,0,1,10.42,2.88c2.6,2.74,3.27,6.19,1.14,9.31a32,32,0,0,1-6,6.08A3,3,0,0,0,36.35,34c.1,1.85,0,3.72.06,5.57A2.21,2.21,0,0,1,35,42c-8.84,4-17.67,4.11-26.43-.15-.61-.29-.9-1.34-1.21-2.09a3,3,0,0,1,0-1.33c.4-4,0-7.39-3.94-10A7.78,7.78,0,0,1,.33,19.54C1.74,14.29,6.25,11.62,11.64,13a47.63,47.63,0,0,1,5.64,2.18A7.31,7.31,0,0,1,20.93,7.8c.65-.41.56-2,.74-2.76L18.38,3.4Zm2.42,25.56c3,.62,6.06.73,8.62,1.9,3,1.38,5,.35,6.95-1.55a19.67,19.67,0,0,0,1.75-1.79c1.67-2,2.71-4.31,1.53-6.91a7.8,7.8,0,0,0-6.28-4.52C30.46,13.71,21.8,20,23.62,27.52Zm-2.26-.31a13.24,13.24,0,0,0-.06-4c-1.4-4.6-8.07-8.95-12.87-8.63a6.91,6.91,0,0,0-6,9.19c1.11,2.83,3.41,4.6,6,6.07A1.63,1.63,0,0,0,9.47,30C13.39,29.1,17.3,28.17,21.36,27.21ZM32.75,40.67a31.47,31.47,0,0,0-21.75,0A27,27,0,0,0,32.75,40.67ZM9.53,34.36a37.4,37.4,0,0,1,24.67,0c.55-1.48.21-2.32-1.29-2.82a34,34,0,0,0-22-.06C9.52,32,8.93,32.7,9.53,34.36Zm24.7,4.51c.57-1.64,0-2.43-1.43-2.9A34.4,34.4,0,0,0,11,36c-1.54.5-2.05,1.35-1.44,2.9A37,37,0,0,1,34.23,38.87ZM21.63,20.79l.77,0c1.46-2.25,3.66-4.13,3.38-7.22-.18-2-1.74-3.95-3.28-3.94s-3.16,1.95-3.26,3.95a2.5,2.5,0,0,0,.06,1C20.06,16.6,20.85,18.69,21.63,20.79Z"/><path class="cls-1" d="M23.62,27.52C21.8,20,30.46,13.71,36.19,14.65a7.8,7.8,0,0,1,6.28,4.52c1.18,2.6.14,4.87-1.53,6.91a19.67,19.67,0,0,1-1.75,1.79c-2,1.9-3.92,2.93-6.95,1.55C29.68,28.25,26.64,28.14,23.62,27.52Z"/><path class="cls-1" d="M21.36,27.21c-4.06,1-8,1.89-11.89,2.79a1.63,1.63,0,0,1-1.09-.12c-2.54-1.47-4.84-3.24-6-6.07a6.91,6.91,0,0,1,6-9.19c4.8-.32,11.47,4,12.87,8.63A13.24,13.24,0,0,1,21.36,27.21Z"/><path class="cls-1" d="M32.75,40.67a27,27,0,0,1-21.75,0A31.47,31.47,0,0,1,32.75,40.67Z"/><path class="cls-1" d="M9.53,34.36c-.6-1.66,0-2.41,1.42-2.88a34,34,0,0,1,22,.06c1.5.5,1.84,1.34,1.29,2.82A37.4,37.4,0,0,0,9.53,34.36Z"/><path class="cls-1" d="M34.23,38.87a37,37,0,0,0-24.7,0c-.61-1.55-.1-2.4,1.44-2.9A34.4,34.4,0,0,1,32.8,36C34.24,36.44,34.8,37.23,34.23,38.87Z"/><path class="cls-1" d="M21.63,20.79c-.78-2.1-1.57-4.19-2.33-6.3a2.5,2.5,0,0,1-.06-1c.1-2,1.7-3.94,3.26-3.95s3.1,1.92,3.28,3.94c.28,3.09-1.92,5-3.38,7.22Z"/></g></g></svg>