<svg xmlns="http://www.w3.org/2000/svg" viewBox="0 0 45 45"><defs><style>.cls-1{fill:#fff;}</style></defs><g id="Calque_2" data-name="Calque 2"><g id="Calque_1-2" data-name="Calque 1"><path d="M19.5,7.55c-1.73-3-1.6-5.09.29-6.62a4.36,4.36,0,0,1,5.43,0c1.82,1.53,1.91,3.6.18,6.6,3.92,2,7.24,4.63,8.8,8.89,1.63,4.42.83,8.27-3,11.29,3.32,5.6,3.94,8.93-3.51,10.8.84.11,1.66.27,2.5.31,2.87.14,5.79,0,8.58.46a16.67,16.67,0,0,1,5.36,2.54c1.3.79,1,2-.21,2.58a6.1,6.1,0,0,1-3,.5c-2.33-.14-4.65-.53-7-.7-3.7-.26-7.4-.43-11.11-.63a6.31,6.31,0,0,0-1,0c-3.18.21-6.36.42-9.53.66-2.85.21-5.7.48-8.55.68a5.72,5.72,0,0,1-2.11-.14C-.19,44.2-.6,42.77,1,41.56A10.74,10.74,0,0,1,5.41,39.4a73.26,73.26,0,0,1,8-.49,32.11,32.11,0,0,0,3.78-.41c-7-1.76-7.11-4.92-3.42-10.67-3.83-3-4.64-6.94-3-11.39C12.25,12.23,15.58,9.65,19.5,7.55Zm2.93,19h5.08A5,5,0,0,0,32.6,22.8a8.24,8.24,0,0,0-.47-6.24c-1.81-4-5.15-6.24-9.05-7.83a1.85,1.85,0,0,0-1.31,0C18.14,10.26,15,12.38,13.1,16a8.46,8.46,0,0,0-.78,6.76,5,5,0,0,0,5.21,3.8Zm-20,16.06a304.55,304.55,0,0,1,39.74.16A11.2,11.2,0,0,0,39,41.27a25.52,25.52,0,0,0-4.47-.36c-3.9-.12-7.84.09-11.54-1.57a2.66,2.66,0,0,0-1.29.1c-2.94.47-5.86,1-8.82,1.39-2.45.29-4.94.22-7.39.52A12.35,12.35,0,0,0,2.45,42.57Zm28.45-11c-.77-2.44-1.63-3.12-3.87-3.12q-4.61,0-9.21,0c-2.18,0-3.17.84-3.71,3.12Zm.71,2.89-.18-.62h-18l-.12.67c3.09,2.34,6.84,2.23,10.53,2.13C26.64,36.56,29.47,36.4,31.61,34.47ZM22,6.73h.9c.61-.83,1.6-1.62,1.72-2.52.2-1.38-.82-2.27-2.3-2.22a1.94,1.94,0,0,0-2.08,2.25C20.45,5.14,21.42,5.9,22,6.73Z"/><path class="cls-1" d="M22.43,26.51h-4.9a5,5,0,0,1-5.21-3.8A8.46,8.46,0,0,1,13.1,16c1.88-3.57,5-5.69,8.67-7.19a1.85,1.85,0,0,1,1.31,0c3.9,1.59,7.24,3.87,9.05,7.83a8.24,8.24,0,0,1,.47,6.24,5,5,0,0,1-5.09,3.71Zm-1-7.78a5.44,5.44,0,0,0,.14,1.51c.13.4.6.71.91,1.06.32-.36.79-.67.91-1.08a6.24,6.24,0,0,0,.16-1.56l3.11-1.43-2.89-1.59L22.6,13,21,15.75l-2.7,1.44Z"/><path class="cls-1" d="M2.45,42.57a12.35,12.35,0,0,1,3-1.22c2.45-.3,4.94-.23,7.39-.52,3-.35,5.88-.92,8.82-1.39a2.66,2.66,0,0,1,1.29-.1c3.7,1.66,7.64,1.45,11.54,1.57a25.52,25.52,0,0,1,4.47.36,11.2,11.2,0,0,1,3.21,1.46A304.55,304.55,0,0,0,2.45,42.57Z"/><path class="cls-1" d="M30.9,31.58H14.11c.54-2.28,1.53-3.11,3.71-3.12q4.61,0,9.21,0C29.27,28.46,30.13,29.14,30.9,31.58Z"/><path class="cls-1" d="M31.61,34.47c-2.14,1.93-5,2.09-7.73,2.18-3.69.1-7.44.21-10.53-2.13l.12-.67h18Z"/><path class="cls-1" d="M22,6.73c-.62-.83-1.59-1.59-1.76-2.5A1.94,1.94,0,0,1,22.36,2c1.48-.05,2.5.84,2.3,2.22-.12.9-1.11,1.69-1.72,2.52Z"/><path d="M21.43,18.73,18.3,17.19,21,15.75,22.6,13l1.17,2.63,2.89,1.59-3.11,1.43a6.24,6.24,0,0,1-.16,1.56c-.12.41-.59.72-.91,1.08-.31-.35-.78-.66-.91-1.06A5.44,5.44,0,0,1,21.43,18.73Z"/></g></g></svg>