<svg xmlns="http://www.w3.org/2000/svg" viewBox="0 0 466.29 511.81"><g id="Calque_2" data-name="Calque 2"><g id="Calque_1-2" data-name="Calque 1"><path d="M281.16,0C287.27,2.74,294,3.82,300,7.08a63.33,63.33,0,0,1,14.91,10.74c29.4,29.49,58.95,58.83,88.28,88.4a59.3,59.3,0,0,1,17.72,42.67q.33,63.23,0,126.43c0,4.23,1.09,5.44,5.23,5.16a63.63,63.63,0,0,1,12.94.46c15.08,2.09,27.11,15.88,27.23,31.1.11,14.66.06,29.32,0,44a32.53,32.53,0,0,1-32.65,32.66c-30.65.05-61.3.12-91.95-.1-4.42,0-5.72,1.05-5.44,5.48.41,6.63.2,13.32.07,20-.12,6.32-1,12.69-7.3,15.9-6.72,3.41-12.68.14-17.92-3.92-14.48-11.21-28.79-22.64-43.17-34q-22.35-17.62-44.72-35.24c-17.17-13.44-17.45-30.61-.45-44.08q43.44-34.43,87-68.65c5.59-4.39,11.76-8.67,19.11-5,7.11,3.58,7.41,10.85,7.43,17.82,0,6.67.1,13.33,0,20-.06,2.58.74,3.51,3.38,3.49q19-.15,38,0c2.65,0,3.37-.95,3.37-3.5-.06-42.31,0-84.62-.1-126.93,0-6.8-.74-7.09-7.51-7.23-16.64-.35-33.34,1.27-49.91-.8-27.46-3.43-49.1-28.49-49.14-56.26,0-13.82-.11-27.65.07-41.48,0-3.24-.85-4.3-4.15-4.29-63,.08-125.93-.12-188.9.15C57.13,40.19,40.94,56.7,40.1,80.9c0,.67,0,1.33,0,2q0,173.16,0,346.31c0,25.78,16.77,42.55,42.54,42.58q127.68.15,255.36,0c26,0,42.5-16.71,42.92-42.86.07-4.5.11-9,0-13.49-.08-2.4.76-3.17,3.14-3.15,11.16.09,22.32,0,33.48,0,1.64,0,3.38-.3,3.43,2.34.29,17.68.56,35.3-7.77,51.73q-18.49,36.49-58.54,44.39c-.9.18-2.06-.27-2.52,1H67.24c-.92-1.88-2.9-1.34-4.35-1.69-28.37-6.79-47.59-24-58.28-50.95C-.5,446.28.08,432.76.08,419.28Q.14,250.15,0,81C-.09,43,25.16,10.31,62.39,1.78,64.32,1.34,66.72,2,68.24,0Z"/></g></g></svg>